<svg xmlns="http://www.w3.org/2000/svg" viewBox="0 0 1600 420">
  <defs>
    <linearGradient id="sky" x1="0" y1="0" x2="0" y2="1">
      <stop offset="0%" stop-color="#345978"/>
      <stop offset="100%" stop-color="#a9c2d8"/>
    </linearGradient>
    <linearGradient id="fade" x1="0" y1="0" x2="1" y2="0">
      <stop offset="0%" stop-color="#050403" stop-opacity=".78"/>
      <stop offset="48%" stop-color="#050403" stop-opacity=".22"/>
      <stop offset="100%" stop-color="#050403" stop-opacity=".52"/>
    </linearGradient>
    <radialGradient id="sun">
      <stop offset="0%" stop-color="#fff8bf"/>
      <stop offset="35%" stop-color="#78b9ff"/>
      <stop offset="100%" stop-color="#78b9ff" stop-opacity="0"/>
    </radialGradient>
    <filter id="glow"><feGaussianBlur stdDeviation="8"/></filter>
  </defs>
  <rect width="1600" height="420" fill="url(#sky)"/>
  <circle cx="1260" cy="100" r="82" fill="url(#sun)" opacity=".72"/>
  <circle cx="1260" cy="100" r="48" fill="#78b9ff" opacity=".18" filter="url(#glow)"/>
  <path d="M0 300 C250 255, 420 290, 620 255 C820 220, 1010 278, 1200 245 C1360 218, 1490 250, 1600 232 L1600 420 L0 420 Z" fill="#17202a"/>
  <path d="M0 330 C220 300, 420 340, 650 302 C870 270, 1080 332, 1600 286 L1600 420 L0 420 Z" fill="#060606" opacity=".76"/>
  
  <g>
    <rect x="840" y="165" width="420" height="140" fill="#d7e0e6"/>
    <rect x="875" y="110" width="65" height="195" fill="#edf3f6"/>
    <rect x="1000" y="80" width="75" height="225" fill="#edf3f6"/>
    <rect x="1160" y="118" width="65" height="187" fill="#edf3f6"/>
    <polygon points="875,110 907,65 940,110" fill="#cdd7de"/>
    <polygon points="1000,80 1037,28 1075,80" fill="#cdd7de"/>
    <polygon points="1160,118 1192,75 1225,118" fill="#cdd7de"/>
    <rect x="1020" y="210" width="40" height="95" fill="#405b73"/>
    <path d="M780 305h550v22H780z" fill="#aebcc4"/>
  </g>
  <rect width="1600" height="420" fill="url(#fade)"/>
  <rect x="1.5" y="1.5" width="1597" height="417" rx="22" fill="none" stroke="#78b9ff" stroke-opacity=".35" stroke-width="3"/>
</svg>