<svg xmlns="http://www.w3.org/2000/svg" viewBox="0 0 1600 420">
  <defs>
    <linearGradient id="sky" x1="0" y1="0" x2="0" y2="1">
      <stop offset="0%" stop-color="#152e50"/>
      <stop offset="100%" stop-color="#6d91ad"/>
    </linearGradient>
    <linearGradient id="fade" x1="0" y1="0" x2="1" y2="0">
      <stop offset="0%" stop-color="#050403" stop-opacity=".78"/>
      <stop offset="48%" stop-color="#050403" stop-opacity=".22"/>
      <stop offset="100%" stop-color="#050403" stop-opacity=".52"/>
    </linearGradient>
    <radialGradient id="sun">
      <stop offset="0%" stop-color="#fff8bf"/>
      <stop offset="35%" stop-color="#6fd0e5"/>
      <stop offset="100%" stop-color="#6fd0e5" stop-opacity="0"/>
    </radialGradient>
    <filter id="glow"><feGaussianBlur stdDeviation="8"/></filter>
  </defs>
  <rect width="1600" height="420" fill="url(#sky)"/>
  <circle cx="1260" cy="100" r="82" fill="url(#sun)" opacity=".72"/>
  <circle cx="1260" cy="100" r="48" fill="#6fd0e5" opacity=".18" filter="url(#glow)"/>
  <path d="M0 300 C250 255, 420 290, 620 255 C820 220, 1010 278, 1200 245 C1360 218, 1490 250, 1600 232 L1600 420 L0 420 Z" fill="#101820"/>
  <path d="M0 330 C220 300, 420 340, 650 302 C870 270, 1080 332, 1600 286 L1600 420 L0 420 Z" fill="#060606" opacity=".76"/>
  
  <g fill="#d9e7ef"><polygon points="760,285 920,80 1080,285"/><polygon points="980,285 1160,45 1340,285"/></g>
  <g fill="#17202a"><polygon points="795,285 920,120 1045,285"/><polygon points="1020,285 1160,88 1300,285"/></g>
  <g fill="#16110d">
    <path d="M840 310h360l-40 42H885z"/>
    <rect x="1015" y="180" width="12" height="130"/>
    <polygon points="1027,185 1027,300 1125,245" fill="#d8e0da"/>
  </g>
  <rect width="1600" height="420" fill="url(#fade)"/>
  <rect x="1.5" y="1.5" width="1597" height="417" rx="22" fill="none" stroke="#6fd0e5" stroke-opacity=".35" stroke-width="3"/>
</svg>