<svg xmlns="http://www.w3.org/2000/svg" viewBox="0 0 1600 420">
  <defs>
    <linearGradient id="sky" x1="0" y1="0" x2="0" y2="1">
      <stop offset="0%" stop-color="#375b73"/>
      <stop offset="100%" stop-color="#9bb982"/>
    </linearGradient>
    <linearGradient id="fade" x1="0" y1="0" x2="1" y2="0">
      <stop offset="0%" stop-color="#050403" stop-opacity=".78"/>
      <stop offset="48%" stop-color="#050403" stop-opacity=".22"/>
      <stop offset="100%" stop-color="#050403" stop-opacity=".52"/>
    </linearGradient>
    <radialGradient id="sun">
      <stop offset="0%" stop-color="#fff8bf"/>
      <stop offset="35%" stop-color="#6abe88"/>
      <stop offset="100%" stop-color="#6abe88" stop-opacity="0"/>
    </radialGradient>
    <filter id="glow"><feGaussianBlur stdDeviation="8"/></filter>
  </defs>
  <rect width="1600" height="420" fill="url(#sky)"/>
  <circle cx="1260" cy="100" r="82" fill="url(#sun)" opacity=".72"/>
  <circle cx="1260" cy="100" r="48" fill="#6abe88" opacity=".18" filter="url(#glow)"/>
  <path d="M0 300 C250 255, 420 290, 620 255 C820 220, 1010 278, 1200 245 C1360 218, 1490 250, 1600 232 L1600 420 L0 420 Z" fill="#17251a"/>
  <path d="M0 330 C220 300, 420 340, 650 302 C870 270, 1080 332, 1600 286 L1600 420 L0 420 Z" fill="#060606" opacity=".76"/>
  
  <g fill="#1d1710">
    <rect x="1040" y="140" width="16" height="160"/>
    <polygon points="1048,150 1048,280 910,215" fill="#ddd5b4"/>
    <polygon points="1048,150 1048,280 1185,215" fill="#ddd5b4"/>
    <polygon points="1048,150 1048,20 985,85" fill="#ddd5b4"/>
    <polygon points="1048,150 1048,20 1115,85" fill="#ddd5b4"/>
    <rect x="975" y="300" width="150" height="22"/>
  </g>
  <g fill="#24321f"><circle cx="790" cy="220" r="55"/><rect x="780" y="220" width="20" height="95"/></g>
  <rect width="1600" height="420" fill="url(#fade)"/>
  <rect x="1.5" y="1.5" width="1597" height="417" rx="22" fill="none" stroke="#6abe88" stroke-opacity=".35" stroke-width="3"/>
</svg>