<svg xmlns="http://www.w3.org/2000/svg" viewBox="0 0 1600 420">
  <defs>
    <linearGradient id="sky" x1="0" y1="0" x2="0" y2="1">
      <stop offset="0%" stop-color="#263e49"/>
      <stop offset="100%" stop-color="#ef7d47"/>
    </linearGradient>
    <linearGradient id="fade" x1="0" y1="0" x2="1" y2="0">
      <stop offset="0%" stop-color="#050403" stop-opacity=".78"/>
      <stop offset="48%" stop-color="#050403" stop-opacity=".22"/>
      <stop offset="100%" stop-color="#050403" stop-opacity=".52"/>
    </linearGradient>
    <radialGradient id="sun">
      <stop offset="0%" stop-color="#fff8bf"/>
      <stop offset="35%" stop-color="#f07d34"/>
      <stop offset="100%" stop-color="#f07d34" stop-opacity="0"/>
    </radialGradient>
    <filter id="glow"><feGaussianBlur stdDeviation="8"/></filter>
  </defs>
  <rect width="1600" height="420" fill="url(#sky)"/>
  <circle cx="1260" cy="100" r="82" fill="url(#sun)" opacity=".72"/>
  <circle cx="1260" cy="100" r="48" fill="#f07d34" opacity=".18" filter="url(#glow)"/>
  <path d="M0 300 C250 255, 420 290, 620 255 C820 220, 1010 278, 1200 245 C1360 218, 1490 250, 1600 232 L1600 420 L0 420 Z" fill="#17271b"/>
  <path d="M0 330 C220 300, 420 340, 650 302 C870 270, 1080 332, 1600 286 L1600 420 L0 420 Z" fill="#060606" opacity=".76"/>
  
  <g>
    <path d="M930 300 L1050 65 L1170 300 Z" fill="#2a160c"/>
    <path d="M1012 135 L1050 65 L1090 140 Z" fill="#f36d2e" opacity=".85"/>
    <path d="M1040 85 q18-35 38 0 q18-28 36 6" fill="none" stroke="#ffbf5c" stroke-width="14" opacity=".6"/>
    <path d="M1280 300 q-40-110 25-180 q-18 72 0 180" fill="#101711"/>
    <path d="M1285 140 q-85-45-135 10 q75-12 135 25" fill="#18331e"/>
    <path d="M1288 150 q90-55 145 5 q-90-18-145 20" fill="#18331e"/>
  </g>
  <rect width="1600" height="420" fill="url(#fade)"/>
  <rect x="1.5" y="1.5" width="1597" height="417" rx="22" fill="none" stroke="#f07d34" stroke-opacity=".35" stroke-width="3"/>
</svg>