<svg xmlns="http://www.w3.org/2000/svg" viewBox="0 0 1600 420">
  <defs>
    <linearGradient id="sky" x1="0" y1="0" x2="0" y2="1">
      <stop offset="0%" stop-color="#173153"/>
      <stop offset="100%" stop-color="#557f9e"/>
    </linearGradient>
    <linearGradient id="fade" x1="0" y1="0" x2="1" y2="0">
      <stop offset="0%" stop-color="#050403" stop-opacity=".78"/>
      <stop offset="48%" stop-color="#050403" stop-opacity=".22"/>
      <stop offset="100%" stop-color="#050403" stop-opacity=".52"/>
    </linearGradient>
    <radialGradient id="sun">
      <stop offset="0%" stop-color="#fff8bf"/>
      <stop offset="35%" stop-color="#5a98df"/>
      <stop offset="100%" stop-color="#5a98df" stop-opacity="0"/>
    </radialGradient>
    <filter id="glow"><feGaussianBlur stdDeviation="8"/></filter>
  </defs>
  <rect width="1600" height="420" fill="url(#sky)"/>
  <circle cx="1260" cy="100" r="82" fill="url(#sun)" opacity=".72"/>
  <circle cx="1260" cy="100" r="48" fill="#5a98df" opacity=".18" filter="url(#glow)"/>
  <path d="M0 300 C250 255, 420 290, 620 255 C820 220, 1010 278, 1200 245 C1360 218, 1490 250, 1600 232 L1600 420 L0 420 Z" fill="#111b20"/>
  <path d="M0 330 C220 300, 420 340, 650 302 C870 270, 1080 332, 1600 286 L1600 420 L0 420 Z" fill="#060606" opacity=".76"/>
  
  <g fill="#111824">
    <rect x="810" y="170" width="500" height="135"/>
    <rect x="860" y="100" width="60" height="205"/>
    <rect x="1010" y="65" width="85" height="240"/>
    <rect x="1200" y="110" width="55" height="195"/>
    <polygon points="860,100 890,55 920,100"/>
    <polygon points="1010,65 1052,10 1095,65"/>
    <polygon points="1200,110 1227,70 1255,110"/>
  </g>
  <path d="M700 340q180-90 360 0t360 0" fill="none" stroke="#315e72" stroke-width="28" opacity=".7"/>
  <rect width="1600" height="420" fill="url(#fade)"/>
  <rect x="1.5" y="1.5" width="1597" height="417" rx="22" fill="none" stroke="#5a98df" stroke-opacity=".35" stroke-width="3"/>
</svg>