<svg xmlns="http://www.w3.org/2000/svg" viewBox="0 0 1600 420">
  <defs>
    <linearGradient id="sky" x1="0" y1="0" x2="0" y2="1">
      <stop offset="0%" stop-color="#3d6f92"/>
      <stop offset="100%" stop-color="#b4d28b"/>
    </linearGradient>
    <linearGradient id="fade" x1="0" y1="0" x2="1" y2="0">
      <stop offset="0%" stop-color="#050403" stop-opacity=".78"/>
      <stop offset="48%" stop-color="#050403" stop-opacity=".22"/>
      <stop offset="100%" stop-color="#050403" stop-opacity=".52"/>
    </linearGradient>
    <radialGradient id="sun">
      <stop offset="0%" stop-color="#fff8bf"/>
      <stop offset="35%" stop-color="#76bf5b"/>
      <stop offset="100%" stop-color="#76bf5b" stop-opacity="0"/>
    </radialGradient>
    <filter id="glow"><feGaussianBlur stdDeviation="8"/></filter>
  </defs>
  <rect width="1600" height="420" fill="url(#sky)"/>
  <circle cx="1260" cy="100" r="82" fill="url(#sun)" opacity=".72"/>
  <circle cx="1260" cy="100" r="48" fill="#76bf5b" opacity=".18" filter="url(#glow)"/>
  <path d="M0 300 C250 255, 420 290, 620 255 C820 220, 1010 278, 1200 245 C1360 218, 1490 250, 1600 232 L1600 420 L0 420 Z" fill="#152318"/>
  <path d="M0 330 C220 300, 420 340, 650 302 C870 270, 1080 332, 1600 286 L1600 420 L0 420 Z" fill="#060606" opacity=".76"/>
  
  <g fill="#1c1710">
    <rect x="1010" y="120" width="16" height="170"/>
    <polygon points="1018,135 1018,255 900,195" fill="#e5d8ad"/>
    <polygon points="1018,135 1018,255 1140,195" fill="#e5d8ad"/>
    <polygon points="1018,135 1018,15 960,80" fill="#e5d8ad"/>
    <polygon points="1018,135 1018,15 1080,80" fill="#e5d8ad"/>
    <rect x="950" y="290" width="140" height="24"/>
  </g>
  <g fill="#2e4d2d"><circle cx="760" cy="230" r="60"/><rect x="748" y="230" width="24" height="90"/></g>
  <path d="M650 340 q180-60 360 0t360 0" fill="none" stroke="#4f92b0" stroke-width="24" opacity=".65"/>
  <rect width="1600" height="420" fill="url(#fade)"/>
  <rect x="1.5" y="1.5" width="1597" height="417" rx="22" fill="none" stroke="#76bf5b" stroke-opacity=".35" stroke-width="3"/>
</svg>