<svg xmlns="http://www.w3.org/2000/svg" viewBox="0 0 1600 420">
  <defs>
    <linearGradient id="sky" x1="0" y1="0" x2="0" y2="1">
      <stop offset="0%" stop-color="#171528"/>
      <stop offset="100%" stop-color="#674673"/>
    </linearGradient>
    <linearGradient id="fade" x1="0" y1="0" x2="1" y2="0">
      <stop offset="0%" stop-color="#050403" stop-opacity=".78"/>
      <stop offset="48%" stop-color="#050403" stop-opacity=".22"/>
      <stop offset="100%" stop-color="#050403" stop-opacity=".52"/>
    </linearGradient>
    <radialGradient id="sun">
      <stop offset="0%" stop-color="#fff8bf"/>
      <stop offset="35%" stop-color="#a45cc7"/>
      <stop offset="100%" stop-color="#a45cc7" stop-opacity="0"/>
    </radialGradient>
    <filter id="glow"><feGaussianBlur stdDeviation="8"/></filter>
  </defs>
  <rect width="1600" height="420" fill="url(#sky)"/>
  <circle cx="1260" cy="100" r="82" fill="url(#sun)" opacity=".72"/>
  <circle cx="1260" cy="100" r="48" fill="#a45cc7" opacity=".18" filter="url(#glow)"/>
  <path d="M0 300 C250 255, 420 290, 620 255 C820 220, 1010 278, 1200 245 C1360 218, 1490 250, 1600 232 L1600 420 L0 420 Z" fill="#0d1412"/>
  <path d="M0 330 C220 300, 420 340, 650 302 C870 270, 1080 332, 1600 286 L1600 420 L0 420 Z" fill="#060606" opacity=".76"/>
  
  <circle cx="1260" cy="95" r="50" fill="#e7ddff" opacity=".8"/>
  <g fill="#0b0910">
    <rect x="900" y="180" width="340" height="120"/>
    <polygon points="900,180 1070,80 1240,180"/>
    <rect x="955" y="100" width="45" height="200"/>
    <polygon points="955,100 977,55 1000,100"/>
    <rect x="1170" y="110" width="38" height="190"/>
    <polygon points="1170,110 1189,65 1208,110"/>
  </g>
  <g stroke="#201426" stroke-width="8"><path d="M760 310q20-90-30-160m30 80l-55-35m55 5l55-45" fill="none"/></g>
  <rect width="1600" height="420" fill="url(#fade)"/>
  <rect x="1.5" y="1.5" width="1597" height="417" rx="22" fill="none" stroke="#a45cc7" stroke-opacity=".35" stroke-width="3"/>
</svg>