<svg xmlns="http://www.w3.org/2000/svg" viewBox="0 0 1600 420">
  <defs>
    <linearGradient id="sky" x1="0" y1="0" x2="0" y2="1">
      <stop offset="0%" stop-color="#4a3232"/>
      <stop offset="100%" stop-color="#ac7248"/>
    </linearGradient>
    <linearGradient id="fade" x1="0" y1="0" x2="1" y2="0">
      <stop offset="0%" stop-color="#050403" stop-opacity=".78"/>
      <stop offset="48%" stop-color="#050403" stop-opacity=".22"/>
      <stop offset="100%" stop-color="#050403" stop-opacity=".52"/>
    </linearGradient>
    <radialGradient id="sun">
      <stop offset="0%" stop-color="#fff8bf"/>
      <stop offset="35%" stop-color="#d65f45"/>
      <stop offset="100%" stop-color="#d65f45" stop-opacity="0"/>
    </radialGradient>
    <filter id="glow"><feGaussianBlur stdDeviation="8"/></filter>
  </defs>
  <rect width="1600" height="420" fill="url(#sky)"/>
  <circle cx="1260" cy="100" r="82" fill="url(#sun)" opacity=".72"/>
  <circle cx="1260" cy="100" r="48" fill="#d65f45" opacity=".18" filter="url(#glow)"/>
  <path d="M0 300 C250 255, 420 290, 620 255 C820 220, 1010 278, 1200 245 C1360 218, 1490 250, 1600 232 L1600 420 L0 420 Z" fill="#1c140f"/>
  <path d="M0 330 C220 300, 420 340, 650 302 C870 270, 1080 332, 1600 286 L1600 420 L0 420 Z" fill="#060606" opacity=".76"/>
  
  <g fill="#17110d">
    <rect x="800" y="170" width="500" height="135"/>
    <rect x="830" y="95" width="55" height="210"/>
    <rect x="980" y="70" width="70" height="235"/>
    <rect x="1190" y="105" width="55" height="200"/>
    <polygon points="830,95 857,55 885,95"/>
    <polygon points="980,70 1015,20 1050,70"/>
    <polygon points="1190,105 1217,65 1245,105"/>
    <rect x="1010" y="210" width="42" height="95" fill="#090807"/>
  </g>
  <rect width="1600" height="420" fill="url(#fade)"/>
  <rect x="1.5" y="1.5" width="1597" height="417" rx="22" fill="none" stroke="#d65f45" stroke-opacity=".35" stroke-width="3"/>
</svg>