<svg xmlns="http://www.w3.org/2000/svg" viewBox="0 0 1600 420">
  <defs>
    <linearGradient id="sky" x1="0" y1="0" x2="0" y2="1">
      <stop offset="0%" stop-color="#1b1015"/>
      <stop offset="100%" stop-color="#5a2923"/>
    </linearGradient>
    <linearGradient id="fade" x1="0" y1="0" x2="1" y2="0">
      <stop offset="0%" stop-color="#050403" stop-opacity=".78"/>
      <stop offset="48%" stop-color="#050403" stop-opacity=".22"/>
      <stop offset="100%" stop-color="#050403" stop-opacity=".52"/>
    </linearGradient>
    <radialGradient id="sun">
      <stop offset="0%" stop-color="#fff8bf"/>
      <stop offset="35%" stop-color="#d44838"/>
      <stop offset="100%" stop-color="#d44838" stop-opacity="0"/>
    </radialGradient>
    <filter id="glow"><feGaussianBlur stdDeviation="8"/></filter>
  </defs>
  <rect width="1600" height="420" fill="url(#sky)"/>
  <circle cx="1260" cy="100" r="82" fill="url(#sun)" opacity=".72"/>
  <circle cx="1260" cy="100" r="48" fill="#d44838" opacity=".18" filter="url(#glow)"/>
  <path d="M0 300 C250 255, 420 290, 620 255 C820 220, 1010 278, 1200 245 C1360 218, 1490 250, 1600 232 L1600 420 L0 420 Z" fill="#130c0a"/>
  <path d="M0 330 C220 300, 420 340, 650 302 C870 270, 1080 332, 1600 286 L1600 420 L0 420 Z" fill="#060606" opacity=".76"/>
  
  <g fill="#0a0808">
    <path d="M890 310q20-120-55-190q60 25 85 90q25-65 85-115q-45 80-40 215"/>
    <path d="M1160 310q-10-100-90-145q70 10 105 75q15-70 70-120q-35 80-20 190"/>
  </g>
  <g stroke="#e3482d" stroke-width="9" fill="none" opacity=".85">
    <path d="M720 350l70-60l55 38l85-75l60 45l90-80"/>
    <path d="M1040 350l70-50l50 25l75-70l95 65"/>
  </g>
  <rect width="1600" height="420" fill="url(#fade)"/>
  <rect x="1.5" y="1.5" width="1597" height="417" rx="22" fill="none" stroke="#d44838" stroke-opacity=".35" stroke-width="3"/>
</svg>